<svg id="visual" viewBox="0 0 1000 100" width="1000" height="100" xmlns="http://www.w3.org/2000/svg" xmlns:xlink="http://www.w3.org/1999/xlink" version="1.1"><path d="M0 51L15.2 47.5C30.3 44 60.7 37 91 40.3C121.3 43.7 151.7 57.3 182 61.7C212.3 66 242.7 61 273 58.8C303.3 56.7 333.7 57.3 364 54.5C394.3 51.7 424.7 45.3 454.8 41.3C485 37.3 515 35.7 545.2 38.8C575.3 42 605.7 50 636 51.2C666.3 52.3 696.7 46.7 727 41.3C757.3 36 787.7 31 818 30.3C848.3 29.7 878.7 33.3 909 37.7C939.3 42 969.7 47 984.8 49.5L1000 52L1000 101L984.8 101C969.7 101 939.3 101 909 101C878.7 101 848.3 101 818 101C787.7 101 757.3 101 727 101C696.7 101 666.3 101 636 101C605.7 101 575.3 101 545.2 101C515 101 485 101 454.8 101C424.7 101 394.3 101 364 101C333.7 101 303.3 101 273 101C242.7 101 212.3 101 182 101C151.7 101 121.3 101 91 101C60.7 101 30.3 101 15.2 101L0 101Z" fill="#ff0800" stroke-linecap="round" stroke-linejoin="miter"></path></svg>
