<svg id="visual" viewBox="0 0 9000 400" width="9000" height="400" xmlns="http://www.w3.org/2000/svg" xmlns:xlink="http://www.w3.org/1999/xlink" version="1.1"><path d="M0 53L125 76.7C250 100.3 500 147.7 750 204C1000 260.3 1250 325.7 1500 336.7C1750 347.7 2000 304.3 2250 267.8C2500 231.3 2750 201.7 3000 167.7C3250 133.7 3500 95.3 3750 127.3C4000 159.3 4250 261.7 4500 271.3C4750 281 5000 198 5250 194.5C5500 191 5750 267 6000 311.2C6250 355.3 6500 367.7 6750 313.7C7000 259.7 7250 139.3 7500 115.5C7750 91.7 8000 164.3 8250 211.8C8500 259.3 8750 281.7 8875 292.8L9000 304L9000 401L8875 401C8750 401 8500 401 8250 401C8000 401 7750 401 7500 401C7250 401 7000 401 6750 401C6500 401 6250 401 6000 401C5750 401 5500 401 5250 401C5000 401 4750 401 4500 401C4250 401 4000 401 3750 401C3500 401 3250 401 3000 401C2750 401 2500 401 2250 401C2000 401 1750 401 1500 401C1250 401 1000 401 750 401C500 401 250 401 125 401L0 401Z" fill="#ff0800" stroke-linecap="round" stroke-linejoin="miter"></path></svg>